<?xml version="1.0" encoding="iso-8859-1"?>
<!-- Generator: Adobe Illustrator 19.0.0, SVG Export Plug-In . SVG Version: 6.00 Build 0)  -->
<svg version="1.1" id="Capa_1" xmlns="http://www.w3.org/2000/svg" xmlns:xlink="http://www.w3.org/1999/xlink" x="0px" y="0px"
	 viewBox="0 0 61.933 61.933" style="enable-background:new 0 0 61.933 61.933;" xml:space="preserve">
<g id="King">
	<path style="fill-rule:evenodd;clip-rule:evenodd;" d="M57.716,40.373c5.699-9.881,5.615-19.911-0.208-24.959
		c-3.108-2.695-7.655-3.906-12.159-3.244c-3.671,0.541-6.911,2.297-9.383,5.002v-0.122c0-2.373-1.622-4.354-3.795-4.904V7.974h2.971
		c0.549,0,0.994-0.445,0.994-0.995c0-0.549-0.445-0.995-0.994-0.995h-2.971V2.979c0-0.568-0.461-1.029-1.029-1.029
		c-0.568,0-1.029,0.461-1.029,1.029v3.005h-2.971c-0.549,0-0.994,0.445-0.994,0.995c0,0.549,0.445,0.995,0.994,0.995h2.971v4.095
		c-2.348,0.414-4.142,2.483-4.142,4.982v0.121c-2.472-2.705-5.711-4.461-9.382-5.002c-4.503-0.662-9.05,0.549-12.16,3.244
		c-5.823,5.048-5.907,15.078-0.222,24.934c1.644,3.053,4.444,6.285,8.317,9.629H9.417c-1.903,0-3.452,1.519-3.452,3.385v3.237
		c0,1.866,1.549,3.385,3.452,3.385h43.102c1.903,0,3.452-1.519,3.452-3.385v-3.237c0-1.866-1.549-3.385-3.452-3.385h-3.106
		C53.285,46.633,56.083,43.404,57.716,40.373z M30.967,13.978c0.013,0,0.026,0.004,0.039,0.004c0.046,0.006,0.087,0.027,0.135,0.027
		c0.015,0,0.028-0.008,0.044-0.009c1.552,0.116,2.785,1.432,2.785,3.051v32.925h-6.004V17.051
		C27.966,15.356,29.312,13.978,30.967,13.978z M5.926,39.388C0.713,30.35,0.629,21.313,5.718,16.902
		c2.641-2.289,6.691-3.356,10.582-2.783c3.987,0.587,7.404,2.805,9.669,6.241v29.616H15.601C10.965,46.252,7.71,42.698,5.926,39.388
		z M53.965,53.361v3.237c0,0.76-0.649,1.378-1.446,1.378H9.417c-0.797,0-1.446-0.618-1.446-1.378v-3.237
		c0-0.76,0.65-1.378,1.446-1.378h43.102C53.315,51.983,53.965,52.601,53.965,53.361z M46.334,49.976H35.966V20.36
		c2.265-3.435,5.683-5.653,9.67-6.241c3.888-0.57,7.941,0.494,10.581,2.783c5.09,4.411,5.006,13.448-0.222,22.512
		C54.225,42.699,50.97,46.252,46.334,49.976z"/>
	<path style="fill-rule:evenodd;clip-rule:evenodd;" d="M11.325,18.454c-2.33,0.807-3.929,2.102-4.753,3.849
		c-1.169,2.479-0.285,4.922-0.247,5.025c0.149,0.403,0.531,0.652,0.938,0.652c0.116,0,0.233-0.021,0.349-0.063
		c0.517-0.192,0.781-0.768,0.589-1.286c-0.007-0.018-0.62-1.777,0.181-3.475c0.586-1.242,1.797-2.188,3.599-2.813
		c3.525-1.22,6.232,0.99,6.342,1.082c0.422,0.359,1.054,0.304,1.409-0.116c0.357-0.421,0.306-1.052-0.116-1.409
		C19.466,19.774,15.941,16.854,11.325,18.454z"/>
	<circle style="fill-rule:evenodd;clip-rule:evenodd;" cx="31.141" cy="54.979" r="1"/>
	<circle style="fill-rule:evenodd;clip-rule:evenodd;" cx="31.141" cy="40.822" r="1"/>
	<circle style="fill-rule:evenodd;clip-rule:evenodd;" cx="31.141" cy="32.735" r="1"/>
	<circle style="fill-rule:evenodd;clip-rule:evenodd;" cx="31.141" cy="24.648" r="1"/>
	<circle style="fill-rule:evenodd;clip-rule:evenodd;" cx="17.833" cy="54.979" r="1"/>
	<circle style="fill-rule:evenodd;clip-rule:evenodd;" cx="44.793" cy="54.979" r="1"/>
</g>
<g>
</g>
<g>
</g>
<g>
</g>
<g>
</g>
<g>
</g>
<g>
</g>
<g>
</g>
<g>
</g>
<g>
</g>
<g>
</g>
<g>
</g>
<g>
</g>
<g>
</g>
<g>
</g>
<g>
</g>
</svg>
