<?xml version="1.0" encoding="iso-8859-1"?>
<!-- Generator: Adobe Illustrator 19.0.0, SVG Export Plug-In . SVG Version: 6.00 Build 0)  -->
<svg version="1.1" id="Capa_1" xmlns="http://www.w3.org/2000/svg" xmlns:xlink="http://www.w3.org/1999/xlink" x="0px" y="0px"
	 viewBox="0 0 63 63" style="enable-background:new 0 0 63 63;" xml:space="preserve">
<g id="Rook_1_">
	<path id="Rook" d="M49.573,15.258c1.225-1.126,1.927-2.694,1.927-4.301V1c0-0.552-0.448-1-1-1h-8.143c-0.552,0-1,0.448-1,1v4
		h-4.786V1c0-0.552-0.448-1-1-1h-8.143c-0.552,0-1,0.448-1,1v4h-4.786V1c0-0.552-0.448-1-1-1H12.5c-0.552,0-1,0.448-1,1v9.958
		c0,1.607,0.702,3.175,1.926,4.3C14.644,16.381,16.26,17,17.975,17h5.312l-6.611,34H12.5c-0.552,0-1,0.448-1,1v10
		c0,0.552,0.448,1,1,1h38c0.552,0,1-0.448,1-1V52c0-0.552-0.448-1-1-1h-4.176l-6.611-34h5.312C46.74,17,48.355,16.381,49.573,15.258
		z M14.781,13.787c-0.826-0.76-1.281-1.765-1.281-2.829V2h6.143v4c0,0.552,0.448,1,1,1h6.786c0.552,0,1-0.448,1-1V2h6.143v4
		c0,0.552,0.448,1,1,1h6.786c0.552,0,1-0.448,1-1V2H49.5v8.958c0,1.064-0.455,2.069-1.282,2.83c-0.836,0.771-2,1.213-3.193,1.213
		H38.5h-14h-6.525C16.781,15,15.618,14.558,14.781,13.787z M49.5,61h-36v-8h4h28h4V61z M18.713,51l5.104-26.25h15.365L44.287,51
		H18.713z M38.794,22.75H24.206L25.324,17h12.351L38.794,22.75z"/>
</g>
<g>
</g>
<g>
</g>
<g>
</g>
<g>
</g>
<g>
</g>
<g>
</g>
<g>
</g>
<g>
</g>
<g>
</g>
<g>
</g>
<g>
</g>
<g>
</g>
<g>
</g>
<g>
</g>
<g>
</g>
</svg>
