<?xml version="1.0" encoding="iso-8859-1"?>
<!-- Generator: Adobe Illustrator 16.0.0, SVG Export Plug-In . SVG Version: 6.00 Build 0)  -->
<!DOCTYPE svg PUBLIC "-//W3C//DTD SVG 1.1//EN" "http://www.w3.org/Graphics/SVG/1.1/DTD/svg11.dtd">
<svg version="1.1" id="Capa_1" xmlns="http://www.w3.org/2000/svg" xmlns:xlink="http://www.w3.org/1999/xlink" x="0px" y="0px"
	 width="45.865px" height="45.865px" viewBox="0 0 45.865 45.865" style="enable-background:new 0 0 45.865 45.865;"
	 xml:space="preserve">
<g>
	<path d="M39.584,35.617h-2.866c-3.166-2.24-6.714-8.846-9.875-18.383c3.045-1.464,5.155-4.569,5.155-8.168
		c0-5-4.067-9.066-9.066-9.066c-5,0-9.066,4.066-9.066,9.066c0,3.598,2.111,6.703,5.154,8.167
		c-3.16,9.537-6.707,16.141-9.875,18.384H6.28c-2.826,0-5.125,2.299-5.125,5.125c0,2.824,2.299,5.123,5.125,5.123h33.305
		c2.826,0,5.125-2.299,5.125-5.123C44.709,37.916,42.411,35.617,39.584,35.617z M27.731,9.066c0,2.647-2.152,4.8-4.799,4.8
		s-4.801-2.152-4.801-4.8c0-2.289,1.613-4.202,3.762-4.679c0.336-0.068,0.684-0.105,1.039-0.105s0.703,0.037,1.039,0.105
		C26.118,4.864,27.731,6.777,27.731,9.066z M22.053,18.089c0.289,0.027,0.582,0.044,0.879,0.044c0.295,0,0.588-0.017,0.877-0.044
		c2.042,6.188,4.907,13.248,8.409,17.528H13.647C17.151,31.337,20.014,24.277,22.053,18.089z M39.584,42.713H6.28
		c-1.088,0-1.971-0.885-1.971-1.971c0-1.088,0.883-1.971,1.971-1.971h33.305c1.088,0,1.971,0.883,1.971,1.971
		C41.556,41.828,40.673,42.713,39.584,42.713z"/>
</g>
<g>
</g>
<g>
</g>
<g>
</g>
<g>
</g>
<g>
</g>
<g>
</g>
<g>
</g>
<g>
</g>
<g>
</g>
<g>
</g>
<g>
</g>
<g>
</g>
<g>
</g>
<g>
</g>
<g>
</g>
</svg>
